# xmcd CD database file
#
# Track frame offsets:
#	150
#	9016
#	32437
#	54736
#	76299
#	102021
#	124767
#	140878
#	165440
#	186893
#	213506
#
# Disc length: 3384 seconds
#
# Revision: 0
# Processed by: cddbd v1.5.1PL0 Copyright (c) Steve Scherf et al.
# Submitted via: CDex 1.51
#
DISCID=880d360b
DTITLE=INNER VISIONS - Control The Past
DYEAR=2004
DGENRE=Melodic Power Metal
TTITLE0=Intro - Asleep
TTITLE1=Big Brother
TTITLE2=Behind The Grid
TTITLE3=Eliminate
TTITLE4=In The Name Of...
TTITLE5=Control The Past
TTITLE6=Maze Of Nowhere
TTITLE7=Wake Up With A Smile
TTITLE8=The Prophecy
TTITLE9=When We'll Be Kings
TTITLE10=Insecure
EXTD=YEAR: 2004
EXTT0=
EXTT1=
EXTT2=
EXTT3=
EXTT4=
EXTT5=
EXTT6=
EXTT7=
EXTT8=
EXTT9=
EXTT10=
PLAYORDER=
